<svg id="Layer_1" data-name="Layer 1" xmlns="http://www.w3.org/2000/svg" xmlns:xlink="http://www.w3.org/1999/xlink" width="136.37" height="30.32" viewBox="0 0 136.37 30.32">
  <defs>
    <style>
      .cls-1 {
        fill: #fff;
      }

      .cls-2 {
        fill: url(#Naamloos_verloop_3);
      }

      .cls-3 {
        fill: url(#Naamloos_verloop_3-2);
      }

      .cls-4 {
        fill: url(#Naamloos_verloop_3-3);
      }
    </style>
    <linearGradient id="Naamloos_verloop_3" data-name="Naamloos verloop 3" x1="14.55" y1="9.66" x2="14.55" y2="33.16" gradientUnits="userSpaceOnUse">
      <stop offset="0" stop-color="#e59425"/>
      <stop offset="0.3" stop-color="#e59125"/>
      <stop offset="0.48" stop-color="#e48925"/>
      <stop offset="0.63" stop-color="#e37b25"/>
      <stop offset="0.76" stop-color="#e16725"/>
      <stop offset="0.88" stop-color="#de4d26"/>
      <stop offset="0.99" stop-color="#db2d26"/>
      <stop offset="1" stop-color="#db2a26"/>
    </linearGradient>
    <linearGradient id="Naamloos_verloop_3-2" x1="14.72" y1="2.84" x2="14.72" y2="30.41" xlink:href="#Naamloos_verloop_3"/>
    <linearGradient id="Naamloos_verloop_3-3" x1="19.34" y1="6.41" x2="19.34" y2="27.3" xlink:href="#Naamloos_verloop_3"/>
  </defs>
  <g>
    <path class="cls-1" d="M43.69,24.41A12.41,12.41,0,0,0,49,25.66c1.82,0,2.53-.68,2.53-1.48s-.88-1.28-3.27-1.79c-3.32-.74-5.74-1.82-5.74-4.8,0-2.79,2.3-4.72,5.88-4.72a15.57,15.57,0,0,1,6,1.25L53.1,17a14.31,14.31,0,0,0-4.8-1c-1.51,0-2.28.54-2.28,1.37s.94,1.25,3.42,1.76c3.58.74,5.65,2,5.65,4.81s-2.24,4.86-6.2,4.86a13.57,13.57,0,0,1-6.68-1.48Z" transform="translate(-0.04 -2.84)"/>
    <path class="cls-1" d="M61.86,16.42v5.46c0,2.76.46,3.55,2.45,3.55a15.52,15.52,0,0,0,1.81-.14v3a9.59,9.59,0,0,1-3.58.57c-2.59,0-4.66-1.62-4.66-4.86V16.42H55.69V13.15h2.19v-6h4v6h4.32v3.27Z" transform="translate(-0.04 -2.84)"/>
    <path class="cls-1" d="M72,15.31a5.86,5.86,0,0,1,4.86-2.44,3.1,3.1,0,0,1,1,.17v4.29a11.17,11.17,0,0,0-1.91-.23c-2.84,0-3.92,2-3.92,4v7.45H68V13.15h4Z" transform="translate(-0.04 -2.84)"/>
    <path class="cls-1" d="M94.3,13.15V28.59h-4v-1a7.49,7.49,0,0,1-4.21,1.25c-4.52,0-6.6-2.11-6.6-7.11V13.15h4v8.56c0,2.39,1.16,3.55,3.35,3.55A5.27,5.27,0,0,0,90.35,24V13.15Z" transform="translate(-0.04 -2.84)"/>
    <path class="cls-1" d="M112.75,7.15V28.59h-4v-.94a9,9,0,0,1-4.49,1.2,7.72,7.72,0,0,1-7.82-8,7.66,7.66,0,0,1,7.82-8A9.33,9.33,0,0,1,108.77,14V7.15Zm-4,16.78v-6.2A5.82,5.82,0,0,0,105,16.42a4.42,4.42,0,0,0-4.61,4.44,4.34,4.34,0,0,0,4.61,4.4A5.79,5.79,0,0,0,108.77,23.93Z" transform="translate(-0.04 -2.84)"/>
    <path class="cls-1" d="M118.81,22a4.25,4.25,0,0,0,4.4,3.44,4.91,4.91,0,0,0,4-1.9l2.53,2.1a8.48,8.48,0,0,1-7,3.19,7.74,7.74,0,0,1-7.9-8,7.75,7.75,0,0,1,7.9-8c4.75,0,7.5,3.44,7.5,8.24,0,.32,0,.63,0,.88Zm0-2.53h7.64A3.41,3.41,0,0,0,122.76,16,4,4,0,0,0,118.84,19.46Z" transform="translate(-0.04 -2.84)"/>
    <path class="cls-1" d="M132.43,7.15h4V28.59h-4Z" transform="translate(-0.04 -2.84)"/>
  </g>
  <g>
    <path class="cls-2" d="M25.14,12a9.45,9.45,0,0,0-12.78.34.72.72,0,0,0-.22.54.8.8,0,0,0,.25.54.74.74,0,0,0,1,0,8,8,0,0,1,10.77-.27,10.13,10.13,0,0,1,.92,14.25c-.19.21-.38.42-.57.61A12.83,12.83,0,0,1,7,28.51,16.2,16.2,0,0,1,1.63,14.39.74.74,0,0,0,1,13.58a.7.7,0,0,0-.56.14.73.73,0,0,0-.3.5A17.71,17.71,0,0,0,6,29.62,14.31,14.31,0,0,0,25.56,29c.21-.21.43-.44.63-.67A11.6,11.6,0,0,0,25.14,12Z" transform="translate(-0.04 -2.84)"/>
    <path class="cls-3" d="M13.51,30.17a10.55,10.55,0,0,0,2.22.24,10.3,10.3,0,0,0,7.3-3,10.2,10.2,0,0,0,2.75-5,8.43,8.43,0,0,0-5.72-9.76.74.74,0,0,0-.6.07.72.72,0,0,0-.35.48.74.74,0,0,0,.52.86,7,7,0,0,1,4.71,8,8.69,8.69,0,0,1-3.86,5.51,8.79,8.79,0,0,1-6.65,1.19,11.24,11.24,0,0,1-7.08-4.89,11,11,0,0,1-1.53-8.41A14.14,14.14,0,0,1,21.52,4.52.73.73,0,0,0,22.36,4a.76.76,0,0,0-.11-.57.73.73,0,0,0-.49-.31A15.67,15.67,0,0,0,10.35,5.49a15.48,15.48,0,0,0-6.57,9.62,12.52,12.52,0,0,0,1.74,9.53A12.67,12.67,0,0,0,13.51,30.17Z" transform="translate(-0.04 -2.84)"/>
    <path class="cls-4" d="M19.07,6.44a11.07,11.07,0,0,0-8.22,2.75,11.71,11.71,0,0,0-4,7.92,9.33,9.33,0,0,0,8.37,10.17c.21,0,.41,0,.61,0A7.56,7.56,0,0,0,23.25,21a.77.77,0,0,0-.15-.59.67.67,0,0,0-.52-.28.73.73,0,0,0-.78.61,6.09,6.09,0,0,1-6.43,5.12,7.85,7.85,0,0,1-7-8.58,10,10,0,0,1,9.82-9.35q.39,0,.78,0A12.62,12.62,0,0,1,30.34,21.13a.74.74,0,0,0,.68.76h0a.75.75,0,0,0,.8-.71A14.11,14.11,0,0,0,19.07,6.44Z" transform="translate(-0.04 -2.84)"/>
  </g>
</svg>
