<svg id="Layer_1" data-name="Layer 1" xmlns="http://www.w3.org/2000/svg" xmlns:xlink="http://www.w3.org/1999/xlink" width="136.37" height="30.32" viewBox="0 0 136.37 30.32">
  <defs>
    <style>
      .cls-1 {
        fill: url(#Naamloos_verloop_3);
      }

      .cls-2 {
        fill: url(#Naamloos_verloop_3-2);
      }

      .cls-3 {
        fill: url(#Naamloos_verloop_3-3);
      }
    </style>
    <linearGradient id="Naamloos_verloop_3" data-name="Naamloos verloop 3" x1="14.51" y1="9.88" x2="14.51" y2="33.39" gradientUnits="userSpaceOnUse">
      <stop offset="0" stop-color="#e49325"/>
      <stop offset="0.3" stop-color="#e49025"/>
      <stop offset="0.48" stop-color="#e38825"/>
      <stop offset="0.63" stop-color="#e17a25"/>
      <stop offset="0.76" stop-color="#df6625"/>
      <stop offset="0.88" stop-color="#dd4b26"/>
      <stop offset="0.99" stop-color="#d92b26"/>
      <stop offset="1" stop-color="#d92826"/>
    </linearGradient>
    <linearGradient id="Naamloos_verloop_3-2" x1="14.69" y1="3.07" x2="14.69" y2="30.63" xlink:href="#Naamloos_verloop_3"/>
    <linearGradient id="Naamloos_verloop_3-3" x1="19.3" y1="6.64" x2="19.3" y2="27.53" xlink:href="#Naamloos_verloop_3"/>
  </defs>
  <path d="M43.65,24.64a12.41,12.41,0,0,0,5.29,1.25c1.82,0,2.53-.68,2.53-1.48s-.88-1.28-3.27-1.79c-3.32-.74-5.74-1.82-5.74-4.8,0-2.79,2.3-4.72,5.88-4.72a15.39,15.39,0,0,1,6,1.25l-1.31,2.9a14.31,14.31,0,0,0-4.8-1c-1.51,0-2.27.54-2.27,1.37s.93,1.25,3.41,1.76c3.58.74,5.65,2,5.65,4.8s-2.24,4.87-6.19,4.87a13.53,13.53,0,0,1-6.68-1.48Z" transform="translate(0 -3.07)"/>
  <path d="M61.82,16.65v5.46c0,2.76.46,3.55,2.45,3.55a15.71,15.71,0,0,0,1.82-.14v3a10,10,0,0,1-3.59.57c-2.58,0-4.66-1.63-4.66-4.87V16.65H55.65V13.38h2.19v-6h4v6h4.32v3.27Z" transform="translate(0 -3.07)"/>
  <path d="M72,15.54a5.83,5.83,0,0,1,4.86-2.44,2.84,2.84,0,0,1,1,.17v4.29a11.17,11.17,0,0,0-1.91-.23c-2.84,0-3.92,2-3.92,4v7.45H68V13.38h4Z" transform="translate(0 -3.07)"/>
  <path d="M94.26,13.38V28.82h-4v-1a7.42,7.42,0,0,1-4.21,1.26c-4.52,0-6.59-2.11-6.59-7.11V13.38h3.95v8.56c0,2.39,1.16,3.55,3.35,3.55a5.27,5.27,0,0,0,3.5-1.22V13.38Z" transform="translate(0 -3.07)"/>
  <path d="M112.71,7.38V28.82h-4v-.94a9,9,0,0,1-4.49,1.19,7.71,7.71,0,0,1-7.82-8,7.66,7.66,0,0,1,7.82-8,9.33,9.33,0,0,1,4.49,1.16V7.38Zm-4,16.78V18A5.82,5.82,0,0,0,105,16.65a4.41,4.41,0,0,0-4.6,4.44,4.34,4.34,0,0,0,4.6,4.4A5.79,5.79,0,0,0,108.73,24.16Z" transform="translate(0 -3.07)"/>
  <path d="M118.77,22.22a4.27,4.27,0,0,0,4.41,3.44,5,5,0,0,0,4-1.9l2.53,2.1a8.54,8.54,0,0,1-7,3.19,7.74,7.74,0,0,1-7.9-8,7.75,7.75,0,0,1,7.9-8c4.75,0,7.51,3.44,7.51,8.24,0,.31,0,.63,0,.88Zm0-2.53h7.64a3.41,3.41,0,0,0-3.72-3.44A4,4,0,0,0,118.8,19.69Z" transform="translate(0 -3.07)"/>
  <path d="M132.39,7.38h4V28.82h-4Z" transform="translate(0 -3.07)"/>
  <path class="cls-1" d="M25.1,12.21a9.44,9.44,0,0,0-12.78.34.71.71,0,0,0-.22.53.74.74,0,0,0,.26.54.72.72,0,0,0,1,0,8,8,0,0,1,10.77-.27,10.1,10.1,0,0,1,.92,14.25l-.57.61A12.84,12.84,0,0,1,7,28.74,16.21,16.21,0,0,1,1.59,14.62a.73.73,0,0,0-.6-.81.71.71,0,0,0-.57.13.73.73,0,0,0-.29.51A17.66,17.66,0,0,0,6,29.84a14.3,14.3,0,0,0,19.52-.62c.21-.21.43-.44.63-.67a11.58,11.58,0,0,0-1-16.34Z" transform="translate(0 -3.07)"/>
  <path class="cls-2" d="M13.47,30.39a9.93,9.93,0,0,0,2.22.24,10.28,10.28,0,0,0,10-8.06A8.43,8.43,0,0,0,20,12.81a.74.74,0,0,0-.6.07.73.73,0,0,0-.35.47.75.75,0,0,0,.52.87,6.94,6.94,0,0,1,4.71,8A8.82,8.82,0,0,1,13.79,29a11.22,11.22,0,0,1-7.08-4.88,11.07,11.07,0,0,1-1.53-8.42,14.14,14.14,0,0,1,16.3-10.9.73.73,0,0,0,.84-.57.76.76,0,0,0-.11-.57.7.7,0,0,0-.49-.31A15.67,15.67,0,0,0,10.31,5.72a15.45,15.45,0,0,0-6.57,9.62,12.67,12.67,0,0,0,9.73,15.05Z" transform="translate(0 -3.07)"/>
  <path class="cls-3" d="M19,6.67a11,11,0,0,0-8.22,2.75,11.75,11.75,0,0,0-4,7.92,9.34,9.34,0,0,0,8.37,10.17l.61,0a7.57,7.57,0,0,0,7.39-6.35.73.73,0,0,0-.15-.59.71.71,0,0,0-.52-.29.74.74,0,0,0-.78.62A6.09,6.09,0,0,1,15.33,26a7.85,7.85,0,0,1-7-8.58,10,10,0,0,1,9.83-9.35l.77,0a12.64,12.64,0,0,1,11.4,13.22.73.73,0,0,0,.67.76h0a.75.75,0,0,0,.8-.71A14.11,14.11,0,0,0,19,6.67Z" transform="translate(0 -3.07)"/>
</svg>
