<?xml version="1.0" encoding="utf-8"?>
<!-- Generator: Adobe Illustrator 26.0.3, SVG Export Plug-In . SVG Version: 6.00 Build 0)  -->
<svg version="1.1" xmlns="http://www.w3.org/2000/svg" xmlns:xlink="http://www.w3.org/1999/xlink" x="0px" y="0px"
	 viewBox="0 0 320 320" style="enable-background:new 0 0 320 320;" xml:space="preserve">
<style type="text/css">
	.st0{display:none;}
	.st1{display:inline;fill:#333333;}
	.st2{display:inline;fill:#58595B;}
	.st3{fill:url(#SVGID_1_);}
	.st4{fill:url(#SVGID_00000157305824667145055810000004499862147601373100_);}
	.st5{fill:url(#SVGID_00000082362445627741643530000010364277012952338572_);}
</style>
<g id="Layer_3" class="st0">
	<rect y="320" class="st1" width="400" height="400"/>
	<rect x="761.05" y="243.89" class="st2" width="3.83" height="3.83"/>
</g>
<g id="Layer_1">
	<g>
		<g>
			<linearGradient id="SVGID_1_" gradientUnits="userSpaceOnUse" x1="150.5275" y1="102.6665" x2="150.5275" y2="264.1819">
				<stop  offset="0" style="stop-color:#E59425"/>
				<stop  offset="0.283" style="stop-color:#E49225"/>
				<stop  offset="0.4532" style="stop-color:#E48D25"/>
				<stop  offset="0.5936" style="stop-color:#E28326"/>
				<stop  offset="0.7177" style="stop-color:#E17526"/>
				<stop  offset="0.8311" style="stop-color:#DE6126"/>
				<stop  offset="0.9352" style="stop-color:#DC4526"/>
				<stop  offset="1" style="stop-color:#DB2A26"/>
			</linearGradient>
			<path class="st3" d="M223.28,118.66c-25.24-22.19-63.83-21.18-87.85,2.31c-0.99,0.97-1.52,2.28-1.48,3.69
				c0.04,1.42,0.67,2.76,1.74,3.7c2,1.76,4.97,1.66,6.9-0.22c20.25-19.74,52.76-20.56,74.01-1.88
				c13.9,12.22,22.21,29.15,23.41,47.67c1.19,18.52-4.88,36.38-17.1,50.28c-1.25,1.43-2.57,2.83-3.91,4.17
				c-32.7,32.71-85.55,34.38-120.31,3.83C71.14,208,57.32,171.73,61.71,135.19c0.32-2.65-1.5-5.09-4.15-5.55
				c-1.38-0.24-2.76,0.09-3.89,0.93c-1.13,0.84-1.85,2.08-2.02,3.49c-4.76,39.84,10.32,79.38,40.34,105.76
				c18.54,16.29,41.68,24.37,64.78,24.37c25.2,0,50.34-9.61,69.37-28.63c1.48-1.48,2.94-3.04,4.36-4.65
				c14-15.93,20.96-36.39,19.6-57.62C248.73,152.06,239.21,132.66,223.28,118.66z"/>
			
				<linearGradient id="SVGID_00000095319353483385869590000006742975979830050988_" gradientUnits="userSpaceOnUse" x1="151.7037" y1="55.8181" x2="151.7037" y2="245.2464">
				<stop  offset="0" style="stop-color:#E59425"/>
				<stop  offset="0.283" style="stop-color:#E49225"/>
				<stop  offset="0.4532" style="stop-color:#E48D25"/>
				<stop  offset="0.5936" style="stop-color:#E28326"/>
				<stop  offset="0.7177" style="stop-color:#E17526"/>
				<stop  offset="0.8311" style="stop-color:#DE6126"/>
				<stop  offset="0.9352" style="stop-color:#DC4526"/>
				<stop  offset="1" style="stop-color:#DB2A26"/>
			</linearGradient>
			<path style="fill:url(#SVGID_00000095319353483385869590000006742975979830050988_);" d="M143.37,243.6
				c5.08,1.11,10.19,1.65,15.26,1.65c18.62,0,36.63-7.32,50.14-20.83c9.5-9.49,16.03-21.45,18.89-34.59
				c6.27-28.81-10.98-58.27-39.29-67.07c-1.39-0.43-2.89-0.27-4.13,0.46c-1.23,0.72-2.08,1.88-2.38,3.28
				c-0.56,2.58,0.96,5.13,3.53,5.93c23.32,7.26,37.54,31.53,32.38,55.24c-3.42,15.73-12.83,29.18-26.49,37.89
				c-13.66,8.7-29.9,11.59-45.75,8.15c-20.17-4.39-37.43-16.32-48.6-33.59c-11.17-17.26-14.92-37.78-10.56-57.8
				c11.1-50.95,60.3-83.87,112.02-74.93c2.68,0.47,5.2-1.25,5.78-3.91c0.3-1.36,0.03-2.75-0.75-3.91c-0.78-1.16-1.96-1.92-3.33-2.16
				c-27.4-4.72-55.24,1.19-78.41,16.64c-23.23,15.5-39.28,38.98-45.19,66.12c-4.94,22.67-0.69,45.91,11.95,65.45
				C101.05,225.14,120.57,238.63,143.37,243.6z"/>
			
				<linearGradient id="SVGID_00000168819389163083971280000010511995799210478474_" gradientUnits="userSpaceOnUse" x1="183.3965" y1="80.3467" x2="183.3965" y2="223.9285">
				<stop  offset="0" style="stop-color:#E59425"/>
				<stop  offset="0.283" style="stop-color:#E49225"/>
				<stop  offset="0.4532" style="stop-color:#E48D25"/>
				<stop  offset="0.5936" style="stop-color:#E28326"/>
				<stop  offset="0.7177" style="stop-color:#E17526"/>
				<stop  offset="0.8311" style="stop-color:#DE6126"/>
				<stop  offset="0.9352" style="stop-color:#DC4526"/>
				<stop  offset="1" style="stop-color:#DB2A26"/>
			</linearGradient>
			<path style="fill:url(#SVGID_00000168819389163083971280000010511995799210478474_);" d="M181.58,80.6
				c-20.6-1.66-40.68,5.02-56.52,18.89c-15.84,13.86-25.52,33.19-27.25,54.43c-2.92,35.68,22.89,67.01,57.53,69.85
				c1.4,0.11,2.8,0.17,4.18,0.17c24.8,0,46.23-18.13,50.75-43.67c0.25-1.43-0.11-2.91-0.99-4.06c-0.88-1.14-2.15-1.82-3.58-1.94
				c-2.62-0.2-4.94,1.61-5.41,4.26c-3.86,21.78-22.83,36.94-44.13,35.15c-29.08-2.38-50.73-28.82-48.27-58.93
				c2.98-36.49,32.72-64.26,67.51-64.26c1.77,0,3.56,0.07,5.35,0.22c45.53,3.72,79.91,43.62,78.27,90.82
				c-0.1,2.69,1.92,4.97,4.64,5.21v0c1.39,0.1,2.74-0.34,3.79-1.27c1.05-0.93,1.65-2.21,1.7-3.61
				C270.97,129.23,232.51,84.76,181.58,80.6z"/>
		</g>
	</g>
</g>
</svg>
